<svg xmlns="http://www.w3.org/2000/svg" viewBox="51.6 379.9 437.3 63" width="437.3" height="63" role="img" aria-label="Replay.GG"><title>Replay.GG</title><g><path fill="#FFFFFF" fill-rule="evenodd" d="M64.29 392L101.67 392.03C103.09 392.03 104.48 392.54 105.83 393C106.56 393.25 107.22 393.67 107.83 394.13C108.56 394.68 109.28 395.27 109.83 396C110.58 396.97 111.25 398.02 111.7 399.17C112.15 400.33 112.41 401.59 112.49 402.83C112.63 405.05 112.52 407.29 112.33 409.5C112.24 410.52 112.08 411.56 111.67 412.5C111.18 413.6 110.5 414.65 109.67 415.52C108.83 416.39 107.81 417.1 106.75 417.67C105.7 418.22 104.51 418.44 103.39 418.83L103.07 419.33L113.48 430.17L113.23 430.83L99.33 430.89L88.5 419.92L76.83 419.78C76.55 419.77 76.29 419.93 76.02 420C75.93 420.22 75.74 420.42 75.74 420.67L75.71 429.83C75.7 430.14 75.47 430.39 75.35 430.67L64 430.74C63.89 430.49 63.68 430.27 63.68 430L63.65 393C63.65 392.64 63.99 392.36 64.17 392.04C64.21 392.03 64.25 392 64.29 392ZM121.28 392L163 391.97C163.35 391.97 163.67 392.2 164 392.32L164.23 400.33C164.24 400.74 163.74 401 163.5 401.33L133.67 401.5C133.41 401.5 133.22 401.77 133 401.9C132.93 402.21 132.81 402.52 132.8 402.83C132.76 404 132.82 405.17 132.83 406.33L133.5 406.95L158 406.87C158.46 406.87 158.89 407.09 159.33 407.2L159.57 414.5C159.59 414.95 159.13 415.28 158.91 415.67L133.5 415.76L132.78 416.5L132.83 420.5L133.83 421.34L163.5 421.23C163.7 421.71 164.11 422.15 164.11 422.67L164.14 430C164.14 430.33 163.77 430.56 163.58 430.83L121 430.73L120.71 392.83C120.71 392.53 121.02 392.31 121.17 392.04C121.2 392.03 121.24 392 121.28 392ZM172.62 392L206.83 392.13C208.1 392.13 209.34 392.61 210.5 393.13C211.63 393.63 212.7 394.33 213.61 395.17C214.45 395.94 215.11 396.9 215.67 397.9C216.12 398.7 216.44 399.59 216.62 400.5C216.91 401.98 217.05 403.49 217.05 405C217.06 407.21 216.99 409.44 216.67 411.62C216.52 412.6 216.15 413.54 215.67 414.4C215.16 415.3 214.52 416.15 213.74 416.83C212.88 417.59 211.88 418.24 210.82 418.67C209.44 419.22 207.98 419.73 206.5 419.74L184 419.97C183.84 420.26 183.53 420.51 183.53 420.83L183.6 430.17L182.83 430.87L172.83 430.85C172.49 430.85 172.28 430.46 172 430.26L171.9 393.17C171.9 392.74 172.3 392.41 172.5 392.03C172.54 392.02 172.58 392 172.62 392ZM225.25 392L235 392C235.33 392 235.57 392.33 235.85 392.5L236.17 420.9L263.08 421.17C263.3 421.56 263.75 421.88 263.76 422.33L263.83 429.83C263.83 430.07 263.72 430.29 263.67 430.52C263.44 430.63 263.25 430.85 263 430.85L225.67 430.86C225.24 430.86 224.84 430.62 224.43 430.5L224.19 393.17C224.19 392.87 224.38 392.61 224.47 392.33C224.7 392.23 224.93 392.11 225.17 392.01C225.19 392 225.22 392 225.25 392ZM313.42 392L326.67 392.14L339.33 407.32C339.7 407.05 340.14 406.85 340.44 406.5L352.33 392.17L365.83 392.23C365.78 392.55 365.88 392.94 365.67 393.19L345.22 417.33L345.2 430C345.2 430.3 344.84 430.49 344.67 430.74L334.83 430.85C334.44 430.85 334.09 430.62 333.71 430.5L333.37 417.33L313.17 392.83L313.33 392.03C313.36 392.02 313.39 392 313.42 392ZM289.13 392.17L301 392.02C301.28 392.02 301.52 392.23 301.78 392.33L318.67 423.33L322.17 430L322.02 430.67L310.17 430.8C309.81 430.43 309.36 430.12 309.1 429.67C308.14 428 307.39 426.22 306.54 424.5C306.02 424.28 305.56 423.83 305 423.83L284.5 423.96C284.06 424.42 283.52 424.8 283.19 425.33C282.23 426.87 281.61 428.59 280.67 430.13C280.48 430.44 280.11 430.59 279.83 430.81L268.5 430.85C268.21 430.85 267.96 430.62 267.69 430.5C267.78 430.11 267.75 429.68 267.95 429.33L277.7 412.5L288.05 393.17C288.26 392.78 288.68 392.55 289 392.25C289.04 392.21 289.08 392.17 289.13 392.17ZM76.25 401.83L98.5 401.91C99.02 402.33 99.66 402.62 100.05 403.17C100.42 403.7 100.62 404.36 100.68 405C100.78 405.89 100.86 406.84 100.52 407.67C100.15 408.56 99.45 409.33 98.67 409.89C98.16 410.25 97.46 410.31 96.83 410.32L76.5 410.48C76.26 410.04 75.84 409.66 75.79 409.17C75.58 407.07 75.64 404.94 75.74 402.83C75.76 402.48 76.03 402.19 76.17 401.87C76.19 401.86 76.22 401.83 76.25 401.83ZM184.02 401.83L203.67 401.99C204.12 402.38 204.68 402.68 205.04 403.17C205.4 403.65 205.7 404.23 205.77 404.83C205.9 405.88 205.96 406.99 205.63 408C205.39 408.73 204.82 409.38 204.17 409.79C203.49 410.22 202.64 410.38 201.83 410.38L184.17 410.37C183.91 409.97 183.45 409.64 183.4 409.17C183.22 407.01 183.32 404.83 183.49 402.67C183.52 402.34 183.83 402.12 184 401.84C184 401.84 184.01 401.83 184.02 401.83ZM294.73 403.17L295.75 403.33L300.92 413.67C301.09 414.01 300.91 414.44 300.91 414.83L289.67 415.08C289.37 415.09 289.14 414.8 288.88 414.67C288.9 414.39 288.82 414.08 288.96 413.83L294.67 403.22C294.68 403.19 294.71 403.18 294.73 403.17Z"/><path fill="#E6293F" d="M360.5 421.6H369.8V430.9H360.5Z"/><path fill="#E6293F" fill-rule="evenodd" d="M390.73 392.17L416.5 392.19C418.3 392.19 419.96 393.29 421.5 394.22C422.35 394.74 422.95 395.62 423.5 396.46C423.97 397.18 424.32 397.99 424.52 398.83C424.73 399.76 424.65 400.72 424.72 401.67L424.17 402.45L415.33 402.42C414.18 402.42 413.15 401.53 412 401.53L394.83 401.48C394.15 401.47 393.44 401.66 392.83 401.99C392.35 402.25 391.97 402.7 391.68 403.17C391.41 403.62 391.18 404.14 391.18 404.67L391.19 418.33C391.19 419.02 391.69 419.63 392.11 420.17C392.42 420.56 392.88 420.84 393.33 421.05C393.8 421.26 394.32 421.41 394.83 421.4L411.83 421.2C412.23 421.19 412.65 421.13 413 420.93C413.4 420.71 413.67 420.3 414 419.98L414.36 417.33L413.5 415.97L402.67 415.9C402.36 415.9 402.12 415.63 401.85 415.5C401.82 413.22 401.57 410.94 401.76 408.67C401.79 408.24 402.25 407.97 402.5 407.63L423.67 407.25C424.08 407.24 424.44 407.53 424.83 407.67C424.95 408.06 425.2 408.42 425.2 408.83L425.17 420C425.17 421.42 424.87 422.84 424.5 424.22C424.31 424.93 423.96 425.61 423.5 426.18C422.78 427.09 421.91 427.89 421 428.62C420.45 429.06 419.82 429.4 419.17 429.66C418.07 430.09 416.96 430.67 415.78 430.67L390.17 430.68C388.89 430.68 387.67 430.06 386.52 429.5C385.43 428.97 384.44 428.22 383.5 427.45C383.01 427.05 382.61 426.53 382.25 426C381.85 425.42 381.48 424.82 381.23 424.17C380.82 423.09 380.3 421.99 380.31 420.83L380.48 401.17C380.49 400.18 380.86 399.21 381.31 398.33C381.87 397.23 382.58 396.17 383.5 395.33C384.46 394.46 385.64 393.84 386.83 393.32C388.05 392.78 389.39 392.55 390.67 392.18C390.69 392.17 390.71 392.17 390.73 392.17ZM442.38 392.17L469.1 392.17C470.13 392.17 471.07 392.77 472 393.21C472.55 393.46 473.07 393.8 473.5 394.23C474.24 394.97 475.03 395.72 475.48 396.67C476.14 398.02 476.44 399.53 476.78 401C476.85 401.27 476.72 401.56 476.68 401.83L476.17 402.23L447.17 401.46C446.24 401.43 445.34 401.82 444.43 402C443.86 402.78 442.72 403.37 442.72 404.33L442.72 419C442.72 419.72 443.41 420.32 444 420.73C444.62 421.16 445.41 421.43 446.17 421.42L463.17 421.24C463.73 421.24 464.32 421.15 464.83 420.91C465.24 420.72 465.5 420.3 465.83 419.99C465.92 419.05 466.2 418.11 466.08 417.17C466.02 416.69 465.58 416.35 465.33 415.95L454.33 415.94C454.04 415.94 453.78 415.74 453.5 415.64C453.43 413.31 453.16 410.99 453.3 408.67C453.33 408.26 453.77 408 454 407.66L476 407.46C476.25 407.46 476.44 407.68 476.67 407.78L476.74 422C476.74 423.22 476.26 424.44 475.65 425.5C474.99 426.66 474 427.63 473 428.53C472.43 429.05 471.73 429.44 471 429.71C469.71 430.19 468.38 430.77 467 430.77L442 430.71C440.67 430.71 439.41 430.05 438.17 429.58C437.51 429.33 436.86 429.01 436.33 428.55C435.23 427.57 434.21 426.48 433.33 425.29C432.86 424.64 432.57 423.87 432.33 423.1C432.11 422.37 431.96 421.6 431.96 420.83L431.93 403C431.93 402 432.08 400.99 432.33 400.02C432.55 399.16 432.87 398.32 433.33 397.57C433.88 396.69 434.55 395.88 435.33 395.2C436.24 394.43 437.24 393.74 438.33 393.27C439.6 392.72 441 392.53 442.33 392.17C442.35 392.17 442.36 392.17 442.38 392.17Z"/></g></svg>
